<?xml version="1.0" standalone="no"?>
<!DOCTYPE svg PUBLIC "-//W3C//DTD SVG 20010904//EN"
 "http://www.w3.org/TR/2001/REC-SVG-20010904/DTD/svg10.dtd">
<svg version="1.0" xmlns="http://www.w3.org/2000/svg"
 width="368.000000pt" height="155.000000pt" viewBox="0 0 368.000000 155.000000"
 preserveAspectRatio="xMidYMid meet">

<g transform="translate(0.000000,155.000000) scale(0.100000,-0.100000)"
fill="#000000" stroke="none">
<path d="M646 961 c-3 -4 4 -28 16 -52 12 -24 22 -59 22 -76 1 -18 4 -33 8
-33 3 0 14 -24 23 -52 20 -62 28 -73 48 -65 13 5 12 15 -8 64 -13 32 -34 95
-47 141 -17 62 -27 82 -40 82 -9 0 -19 -4 -22 -9z"/>
<path d="M860 951 c0 -12 4 -21 9 -21 5 0 28 -29 51 -65 40 -62 64 -79 72 -53
3 7 -2 19 -9 28 -7 8 -30 40 -51 70 -41 59 -72 76 -72 41z"/>
<path d="M1083 958 c-6 -7 -11 -73 -12 -145 -2 -128 -2 -133 18 -133 20 0 21
5 21 129 0 71 3 136 6 145 7 19 -19 22 -33 4z"/>
<path d="M1265 825 c0 -80 3 -145 6 -145 4 0 13 7 20 17 10 12 14 50 14 145 0
121 -1 128 -20 128 -19 0 -20 -7 -20 -145z"/>
<path d="M2058 825 c2 -119 6 -145 18 -145 11 0 14 16 15 68 1 37 2 102 3 144
1 72 -1 78 -19 78 -19 0 -20 -6 -17 -145z"/>
<path d="M2560 856 c0 -99 3 -117 21 -140 30 -38 39 -32 22 17 -11 30 -14 69
-11 140 5 89 3 97 -14 97 -16 0 -18 -10 -18 -114z"/>
<path d="M2851 918 c12 -29 30 -76 40 -104 11 -28 28 -68 38 -89 18 -37 19
-38 30 -17 10 19 6 34 -24 97 -19 41 -40 95 -47 120 -10 37 -16 45 -35 45
l-23 0 21 -52z"/>
<path d="M3034 943 c6 -26 94 -244 101 -251 2 -2 8 6 15 18 9 17 6 32 -18 83
-16 34 -38 88 -48 119 -14 43 -24 58 -38 58 -15 0 -17 -5 -12 -27z"/>
<path d="M2302 915 c-17 -36 -14 -154 3 -185 14 -25 14 -25 17 15 5 85 3 195
-3 195 -3 0 -11 -11 -17 -25z"/>
<path d="M1493 893 c-35 -19 -63 -40 -63 -48 0 -9 6 -12 15 -9 12 5 15 -6 15
-65 l0 -71 71 0 c61 0 70 2 65 16 -3 9 -6 27 -6 40 0 15 -6 24 -15 24 -10 0
-15 -10 -15 -30 0 -28 -3 -30 -35 -30 l-35 0 0 73 0 72 37 20 c20 11 38 26 41
33 5 17 -5 14 -75 -25z"/>
<path d="M2135 830 c-19 -8 -19 -9 2 -9 12 -1 25 4 28 9 7 12 -2 12 -30 0z"/>
<path d="M855 555 c0 -29 4 -35 22 -35 30 0 46 31 29 55 -12 16 -12 15 -8 -13
3 -25 1 -32 -12 -32 -11 0 -16 9 -16 30 0 17 -3 30 -7 30 -5 0 -8 -16 -8 -35z"/>
<path d="M975 555 c0 -19 3 -35 8 -35 4 0 7 6 7 14 0 8 6 17 13 19 10 4 10 6
0 6 -7 1 -13 8 -13 16 0 8 -3 15 -7 15 -5 0 -8 -16 -8 -35z"/>
<path d="M1088 583 c7 -3 16 -2 19 1 4 3 -2 6 -13 5 -11 0 -14 -3 -6 -6z"/>
<path d="M1175 555 c0 -35 15 -51 15 -17 1 15 2 15 15 -2 8 -11 17 -17 20 -14
3 2 -4 13 -15 23 -11 10 -20 24 -20 32 0 7 -3 13 -7 13 -5 0 -8 -16 -8 -35z"/>
<path d="M1463 583 c11 -3 17 -14 17 -34 0 -16 3 -29 8 -29 4 0 7 16 7 35 0
31 -3 35 -25 34 -17 -1 -19 -3 -7 -6z"/>
<path d="M1582 578 c-17 -17 -15 -33 5 -49 15 -13 15 -12 3 8 -11 18 -12 24
-1 37 16 19 10 21 -7 4z"/>
<path d="M1622 568 c7 -15 15 -23 17 -17 2 6 -4 18 -13 27 -15 15 -15 15 -4
-10z"/>
<path d="M1760 586 c0 -6 49 -56 55 -56 3 0 -4 14 -17 30 -18 25 -38 39 -38
26z"/>
<path d="M2008 583 c7 -3 16 -2 19 1 4 3 -2 6 -13 5 -11 0 -14 -3 -6 -6z"/>
<path d="M2103 555 c-19 -30 -20 -35 -6 -35 9 0 13 3 10 6 -4 4 3 20 14 35 11
16 17 29 12 29 -4 -1 -18 -16 -30 -35z"/>
<path d="M2378 555 c-2 -19 0 -35 4 -35 4 0 8 6 8 14 0 8 7 16 15 20 8 3 15
11 14 18 0 10 -2 10 -6 1 -2 -7 -9 -13 -15 -13 -6 0 -8 7 -4 15 3 8 2 15 -3
15 -5 0 -11 -16 -13 -35z"/>
<path d="M2586 581 c-3 -4 3 -16 14 -26 11 -10 17 -23 13 -29 -3 -6 0 -5 8 2
12 11 10 16 -10 31 -23 18 -23 19 -5 24 15 4 16 5 2 6 -9 0 -19 -3 -22 -8z"/>
<path d="M2685 580 c3 -5 8 -10 11 -10 2 0 4 5 4 10 0 6 -5 10 -11 10 -5 0 -7
-4 -4 -10z"/>
<path d="M2785 570 c4 -14 7 -31 7 -37 1 -7 5 -13 10 -13 11 0 10 2 -8 41 -10
23 -13 26 -9 9z"/>
<path d="M1309 567 c6 -8 8 -17 4 -20 -3 -4 -1 -7 5 -7 14 0 14 2 6 24 -3 9
-11 16 -16 16 -7 0 -6 -5 1 -13z"/>
<path d="M2227 555 c6 -32 11 -41 17 -34 2 2 -2 18 -10 34 l-13 30 6 -30z"/>
<path d="M2507 555 c6 -32 11 -41 17 -34 2 2 -2 18 -10 34 l-13 30 6 -30z"/>
<path d="M1093 553 c9 -11 14 -23 10 -28 -5 -4 -2 -5 5 -1 18 11 15 24 -10 37
-22 12 -22 11 -5 -8z"/>
<path d="M2004 555 c11 -8 22 -12 25 -9 6 6 -19 24 -34 24 -5 -1 -1 -7 9 -15z"/>
<path d="M1916 535 c4 -8 10 -15 15 -15 4 0 6 7 3 15 -4 8 -10 15 -15 15 -4 0
-6 -7 -3 -15z"/>
</g>
</svg>
